<svg version="1.1" xmlns="http://www.w3.org/2000/svg" xmlns:xlink="http://www.w3.org/1999/xlink" style="height:1215px;" viewBox="0 0 550 470">
    <g fill="#ffc72c" fill-rule="none" stroke="none" stroke-width="1" stroke-linecap="butt" stroke-linejoin="miter" stroke-miterlimit="10" stroke-dasharray="" stroke-dashoffset="0" font-family="none" font-weight="none" font-size="none" text-anchor="none" style="mix-blend-mode:normal">
      <g data-paper-data="{&quot;isGlobalGroup&quot;:true,&quot;bounds&quot;:{&quot;x&quot;:65,&quot;y&quot;:135.29229020492875,&quot;width&quot;:420,&quot;height&quot;:199.4154195901425}}">
        <g data-paper-data="{&quot;isPrimaryText&quot;:true}" fill-rule="nonzero" id="element-id-84076">
          <path d="M99.98341,291.17769c0.41715,0 0.80585,0.08059 1.16611,0.24176c0.36026,0.16117 0.67786,0.37448 0.9528,0.63994c0.27494,0.26546 0.49299,0.58306 0.65416,0.9528c0.16117,0.36974 0.24176,0.76319 0.24176,1.18033c0,0.79637 -0.31286,1.5169 -0.93858,2.16158c-4.22835,3.37509 -8.99709,5.06264 -14.30622,5.06264c-6.29512,0 -11.66114,-2.21846 -16.09806,-6.65538c-4.43692,-4.43692 -6.65538,-9.80294 -6.65538,-16.09806c0,-6.27616 2.21846,-11.63269 6.65538,-16.06961c4.45588,-4.45588 9.8219,-6.68382 16.09806,-6.68382c5.38498,0 10.24853,1.77287 14.59064,5.31862c0.53091,0.51195 0.79637,1.20404 0.79637,2.07625c0,0.43611 -0.07584,0.83429 -0.22753,1.19456c-0.15169,0.36026 -0.365,0.67786 -0.63994,0.9528c-0.27494,0.27494 -0.59728,0.48825 -0.96702,0.63994c-0.36974,0.15169 -0.76319,0.22753 -1.18033,0.22753c-0.73949,0 -1.43157,-0.28442 -2.07625,-0.85325c-1.44105,-1.13767 -3.02905,-2.00989 -4.764,-2.61665c-1.73495,-0.60676 -3.57893,-0.91014 -5.53193,-0.91014c-4.62653,0 -8.57994,1.64014 -11.86023,4.92043c-3.24236,3.24236 -4.86355,7.17681 -4.86355,11.80335c0,4.64549 1.62118,8.58942 4.86355,11.83179c3.26133,3.26133 7.21474,4.89199 11.86023,4.89199c3.96289,0 7.45175,-1.223 10.46658,-3.66899c0.49299,-0.3413 1.08079,-0.52143 1.76339,-0.54039z" data-paper-data="{&quot;glyphName&quot;:&quot;C&quot;,&quot;glyphIndex&quot;:0,&quot;firstGlyphOfWord&quot;:true,&quot;word&quot;:1}" fill="#ffffff" id="element-id-82609"></path>
          <path d="M112.86754,299.56802c-0.5878,1.23248 -1.5169,1.84872 -2.7873,1.84872c-0.43611,0 -0.83429,-0.07584 -1.19456,-0.22753c-0.36026,-0.15169 -0.67786,-0.365 -0.9528,-0.63994c-0.27494,-0.27494 -0.48825,-0.59254 -0.63994,-0.9528c-0.15169,-0.36026 -0.22753,-0.75845 -0.22753,-1.19456c0,-0.39819 0.08533,-0.80585 0.25598,-1.223l15.2448,-39.16435c0.60676,-1.40313 1.5643,-2.10469 2.87262,-2.10469c1.30832,0 2.26586,0.70156 2.87262,2.10469l15.2448,39.16435c0.17065,0.39819 0.25598,0.80585 0.25598,1.223c0,0.43611 -0.07584,0.83429 -0.22753,1.19456c-0.15169,0.36026 -0.365,0.67786 -0.63994,0.9528c-0.27494,0.27494 -0.59728,0.48825 -0.96702,0.63994c-0.36974,0.15169 -0.76319,0.22753 -1.18033,0.22753c-1.32728,0 -2.26586,-0.61624 -2.81574,-1.84872l-12.54283,-32.30988z" data-paper-data="{&quot;glyphName&quot;:&quot;Λ&quot;,&quot;glyphIndex&quot;:1,&quot;word&quot;:1}" fill="#ffffff" id="element-id-22558"></path>
          <path d="M153.99438,261.93953v15.89896h7.9637c1.09975,0 2.13313,-0.20857 3.10016,-0.62572c0.96702,-0.41715 1.80605,-0.99072 2.5171,-1.72073c0.71104,-0.73001 1.27514,-1.57378 1.69229,-2.53132c0.41715,-0.95754 0.62572,-1.9767 0.62572,-3.05749c0,-1.09975 -0.20857,-2.13313 -0.62572,-3.10016c-0.41715,-0.96702 -0.98598,-1.81079 -1.70651,-2.53132c-0.72053,-0.72053 -1.5643,-1.28936 -2.53132,-1.70651c-0.96702,-0.41715 -1.99093,-0.62572 -3.07171,-0.62572zM147.96472,298.40191v-39.47721c0,-0.41715 0.07584,-0.81059 0.22753,-1.18033c0.15169,-0.36974 0.365,-0.69208 0.63994,-0.96702c0.27494,-0.27494 0.59254,-0.48825 0.9528,-0.63994c0.36026,-0.15169 0.75845,-0.22753 1.19456,-0.22753h10.97853c1.91508,0 3.72113,0.36974 5.41816,1.10923c1.69703,0.73949 3.176,1.74443 4.43692,3.01483c1.26092,1.2704 2.26112,2.75411 3.00061,4.45114c0.73949,1.69703 1.10923,3.50308 1.10923,5.41816c0,1.25144 -0.15643,2.4697 -0.46929,3.65477c-0.31286,1.18507 -0.77741,2.30379 -1.39365,3.35613c-0.61624,1.05235 -1.38417,2.02885 -2.30379,2.9295c-0.91962,0.90066 -1.98619,1.69229 -3.1997,2.37489l9.07293,14.53376c0.32234,0.53091 0.48351,1.08079 0.48351,1.64962c0,0.43611 -0.07584,0.83429 -0.22753,1.19456c-0.15169,0.36026 -0.365,0.67786 -0.63994,0.9528c-0.27494,0.27494 -0.59728,0.48825 -0.96702,0.63994c-0.36974,0.15169 -0.76319,0.22753 -1.18033,0.22753c-1.06183,0 -1.92456,-0.49299 -2.5882,-1.47897l-10.03995,-16.06961h-8.47566v14.53376c0,0.83429 -0.2939,1.54534 -0.8817,2.13313c-0.5878,0.5878 -1.29884,0.8817 -2.13313,0.8817c-0.83429,0 -1.54534,-0.2939 -2.13313,-0.8817c-0.5878,-0.5878 -0.8817,-1.29884 -0.8817,-2.13313z" data-paper-data="{&quot;glyphName&quot;:&quot;R&quot;,&quot;glyphIndex&quot;:2,&quot;lastGlyphOfWord&quot;:true,&quot;word&quot;:1}" fill="#ffffff" id="element-id-10300"></path>
          <path d="M234.22869,291.17769c0.41715,0 0.80585,0.08059 1.16611,0.24176c0.36026,0.16117 0.67786,0.37448 0.9528,0.63994c0.27494,0.26546 0.49299,0.58306 0.65416,0.9528c0.16117,0.36974 0.24176,0.76319 0.24176,1.18033c0,0.79637 -0.31286,1.5169 -0.93858,2.16158c-4.22835,3.37509 -8.99709,5.06264 -14.30622,5.06264c-6.29512,0 -11.66114,-2.21846 -16.09806,-6.65538c-4.43692,-4.43692 -6.65538,-9.80294 -6.65538,-16.09806c0,-6.27616 2.21846,-11.63269 6.65538,-16.06961c4.45588,-4.45588 9.8219,-6.68382 16.09806,-6.68382c5.38498,0 10.24853,1.77287 14.59064,5.31862c0.53091,0.51195 0.79637,1.20404 0.79637,2.07625c0,0.43611 -0.07584,0.83429 -0.22753,1.19456c-0.15169,0.36026 -0.365,0.67786 -0.63994,0.9528c-0.27494,0.27494 -0.59728,0.48825 -0.96702,0.63994c-0.36974,0.15169 -0.76319,0.22753 -1.18033,0.22753c-0.73949,0 -1.43157,-0.28442 -2.07625,-0.85325c-1.44105,-1.13767 -3.02905,-2.00989 -4.764,-2.61665c-1.73495,-0.60676 -3.57893,-0.91014 -5.53193,-0.91014c-4.62653,0 -8.57994,1.64014 -11.86023,4.92043c-3.24236,3.24236 -4.86355,7.17681 -4.86355,11.80335c0,4.64549 1.62118,8.58942 4.86355,11.83179c3.26133,3.26133 7.21474,4.89199 11.86023,4.89199c3.96289,0 7.45175,-1.223 10.46658,-3.66899c0.49299,-0.3413 1.08079,-0.52143 1.76339,-0.54039z" data-paper-data="{&quot;glyphName&quot;:&quot;C&quot;,&quot;glyphIndex&quot;:3,&quot;firstGlyphOfWord&quot;:true,&quot;word&quot;:2}" id="element-id-3018"></path>
          <path d="M262.84113,261.93953c-2.35119,0 -4.49854,0.40767 -6.44207,1.223c-1.94352,0.81533 -3.7401,2.04781 -5.38972,3.69743c-1.64962,1.64962 -2.87736,3.44146 -3.68321,5.3755c-0.80585,1.93404 -1.20878,4.07666 -1.20878,6.42785c0,4.62653 1.63066,8.57046 4.89199,11.83179c3.26133,3.26133 7.20525,4.89199 11.83179,4.89199c4.62653,0 8.57046,-1.63066 11.83179,-4.89199c3.26133,-3.26133 4.89199,-7.20525 4.89199,-11.83179c0,-4.60757 -1.63066,-8.54202 -4.89199,-11.80335c-3.28029,-3.28029 -7.22422,-4.92043 -11.83179,-4.92043zM285.59457,278.6633c0,6.27616 -2.22794,11.64218 -6.68382,16.09806c-4.43692,4.43692 -9.79346,6.65538 -16.06961,6.65538c-6.29512,0 -11.66114,-2.21846 -16.09806,-6.65538c-4.43692,-4.43692 -6.65538,-9.80294 -6.65538,-16.09806c0,-6.27616 2.21846,-11.63269 6.65538,-16.06961c4.45588,-4.45588 9.8219,-6.68382 16.09806,-6.68382c6.2572,0 11.61373,2.22794 16.06961,6.68382c2.23742,2.23742 3.91075,4.68342 5.01998,7.33798c1.10923,2.65457 1.66385,5.56511 1.66385,8.73163z" data-paper-data="{&quot;glyphName&quot;:&quot;O&quot;,&quot;glyphIndex&quot;:4,&quot;word&quot;:2}" id="element-id-28616"></path>
          <path d="M290.05993,298.40191v-39.47721c0,-0.41715 0.07584,-0.81059 0.22753,-1.18033c0.15169,-0.36974 0.365,-0.69208 0.63994,-0.96702c0.27494,-0.27494 0.59254,-0.48825 0.9528,-0.63994c0.36026,-0.15169 0.75845,-0.22753 1.19456,-0.22753c0.89118,0 1.66859,0.36974 2.33223,1.10923l25.37008,32.62274v-30.71714c0,-0.83429 0.2939,-1.54534 0.8817,-2.13313c0.5878,-0.5878 1.29884,-0.8817 2.13313,-0.8817c0.83429,0 1.54534,0.2939 2.13313,0.8817c0.5878,0.5878 0.8817,1.29884 0.8817,2.13313v39.47721c0,0.43611 -0.07584,0.83429 -0.22753,1.19456c-0.15169,0.36026 -0.365,0.67786 -0.63994,0.9528c-0.27494,0.27494 -0.59728,0.48825 -0.96702,0.63994c-0.36974,0.15169 -0.76319,0.22753 -1.18033,0.22753c-0.89118,0 -1.6591,-0.35078 -2.30379,-1.05235l-25.39852,-32.62274v30.66026c0,0.83429 -0.2939,1.54534 -0.8817,2.13313c-0.5878,0.5878 -1.29884,0.8817 -2.13313,0.8817c-0.83429,0 -1.54534,-0.2939 -2.13313,-0.8817c-0.5878,-0.5878 -0.8817,-1.29884 -0.8817,-2.13313z" data-paper-data="{&quot;glyphName&quot;:&quot;N&quot;,&quot;glyphIndex&quot;:5,&quot;word&quot;:2}" id="element-id-73254"></path>
          <path d="M331.01612,298.40191v-39.47721c0,-0.41715 0.07584,-0.81059 0.22753,-1.18033c0.15169,-0.36974 0.365,-0.69208 0.63994,-0.96702c0.27494,-0.27494 0.59254,-0.48825 0.9528,-0.63994c0.36026,-0.15169 0.75845,-0.22753 1.19456,-0.22753c0.89118,0 1.66859,0.36974 2.33223,1.10923l25.37008,32.62274v-30.71714c0,-0.83429 0.2939,-1.54534 0.8817,-2.13313c0.5878,-0.5878 1.29884,-0.8817 2.13313,-0.8817c0.83429,0 1.54534,0.2939 2.13313,0.8817c0.5878,0.5878 0.8817,1.29884 0.8817,2.13313v39.47721c0,0.43611 -0.07584,0.83429 -0.22753,1.19456c-0.15169,0.36026 -0.365,0.67786 -0.63994,0.9528c-0.27494,0.27494 -0.59728,0.48825 -0.96702,0.63994c-0.36974,0.15169 -0.76319,0.22753 -1.18033,0.22753c-0.89118,0 -1.6591,-0.35078 -2.30379,-1.05235l-25.39852,-32.62274v30.66026c0,0.83429 -0.2939,1.54534 -0.8817,2.13313c-0.5878,0.5878 -1.29884,0.8817 -2.13313,0.8817c-0.83429,0 -1.54534,-0.2939 -2.13313,-0.8817c-0.5878,-0.5878 -0.8817,-1.29884 -0.8817,-2.13313z" data-paper-data="{&quot;glyphName&quot;:&quot;N&quot;,&quot;glyphIndex&quot;:6,&quot;word&quot;:2}" id="element-id-19433"></path>
          <path d="M401.26735,255.90987c0.41715,0 0.81059,0.07584 1.18033,0.22753c0.36974,0.15169 0.69208,0.365 0.96702,0.63994c0.27494,0.27494 0.48825,0.59728 0.63994,0.96702c0.15169,0.36974 0.22753,0.76319 0.22753,1.18033c0,0.43611 -0.07584,0.83429 -0.22753,1.19456c-0.15169,0.36026 -0.365,0.67786 -0.63994,0.9528c-0.27494,0.27494 -0.59728,0.48825 -0.96702,0.63994c-0.36974,0.15169 -0.76319,0.22753 -1.18033,0.22753h-26.30866c-0.43611,0 -0.83429,-0.07584 -1.19456,-0.22753c-0.36026,-0.15169 -0.67786,-0.365 -0.9528,-0.63994c-0.27494,-0.27494 -0.48825,-0.59254 -0.63994,-0.9528c-0.15169,-0.36026 -0.22753,-0.75845 -0.22753,-1.19456c0,-0.41715 0.07584,-0.81059 0.22753,-1.18033c0.15169,-0.36974 0.365,-0.69208 0.63994,-0.96702c0.27494,-0.27494 0.59254,-0.48825 0.9528,-0.63994c0.36026,-0.15169 0.75845,-0.22753 1.19456,-0.22753zM401.26735,295.38708c0.41715,0 0.81059,0.07584 1.18033,0.22753c0.36974,0.15169 0.69208,0.365 0.96702,0.63994c0.27494,0.27494 0.48825,0.59728 0.63994,0.96702c0.15169,0.36974 0.22753,0.76319 0.22753,1.18033c0,0.43611 -0.07584,0.83429 -0.22753,1.19456c-0.15169,0.36026 -0.365,0.67786 -0.63994,0.9528c-0.27494,0.27494 -0.59728,0.48825 -0.96702,0.63994c-0.36974,0.15169 -0.76319,0.22753 -1.18033,0.22753h-26.30866c-0.43611,0 -0.83429,-0.07584 -1.19456,-0.22753c-0.36026,-0.15169 -0.67786,-0.365 -0.9528,-0.63994c-0.27494,-0.27494 -0.48825,-0.59254 -0.63994,-0.9528c-0.15169,-0.36026 -0.22753,-0.75845 -0.22753,-1.19456c0,-0.41715 0.07584,-0.81059 0.22753,-1.18033c0.15169,-0.36974 0.365,-0.69208 0.63994,-0.96702c0.27494,-0.27494 0.59254,-0.48825 0.9528,-0.63994c0.36026,-0.15169 0.75845,-0.22753 1.19456,-0.22753zM399.07733,275.64847c0.41715,0 0.81059,0.07584 1.18033,0.22753c0.36974,0.15169 0.69208,0.365 0.96702,0.63994c0.27494,0.27494 0.48825,0.59728 0.63994,0.96702c0.15169,0.36974 0.22753,0.76319 0.22753,1.18033c0,0.43611 -0.07584,0.83429 -0.22753,1.19456c-0.15169,0.36026 -0.365,0.67786 -0.63994,0.9528c-0.27494,0.27494 -0.59728,0.48825 -0.96702,0.63994c-0.36974,0.15169 -0.76319,0.22753 -1.18033,0.22753h-21.95707c-0.70156,-0.01896 -1.37469,-0.31286 -2.01937,-0.8817c-0.60676,-0.54987 -0.91014,-1.26092 -0.91014,-2.13313c0,-0.37922 0.07584,-0.74897 0.22753,-1.10923c0.15169,-0.36026 0.36026,-0.67786 0.62572,-0.9528c0.26546,-0.27494 0.57358,-0.49773 0.92436,-0.66838c0.35078,-0.17065 0.73475,-0.26546 1.15189,-0.28442z" data-paper-data="{&quot;glyphName&quot;:&quot;Ξ&quot;,&quot;glyphIndex&quot;:7,&quot;word&quot;:2}" id="element-id-10078"></path>
          <path d="M443.38965,291.17769c0.41715,0 0.80585,0.08059 1.16611,0.24176c0.36026,0.16117 0.67786,0.37448 0.9528,0.63994c0.27494,0.26546 0.49299,0.58306 0.65416,0.9528c0.16117,0.36974 0.24176,0.76319 0.24176,1.18033c0,0.79637 -0.31286,1.5169 -0.93858,2.16158c-4.22835,3.37509 -8.99709,5.06264 -14.30622,5.06264c-6.29512,0 -11.66114,-2.21846 -16.09806,-6.65538c-4.43692,-4.43692 -6.65538,-9.80294 -6.65538,-16.09806c0,-6.27616 2.21846,-11.63269 6.65538,-16.06961c4.45588,-4.45588 9.8219,-6.68382 16.09806,-6.68382c5.38498,0 10.24853,1.77287 14.59064,5.31862c0.53091,0.51195 0.79637,1.20404 0.79637,2.07625c0,0.43611 -0.07584,0.83429 -0.22753,1.19456c-0.15169,0.36026 -0.365,0.67786 -0.63994,0.9528c-0.27494,0.27494 -0.59728,0.48825 -0.96702,0.63994c-0.36974,0.15169 -0.76319,0.22753 -1.18033,0.22753c-0.73949,0 -1.43157,-0.28442 -2.07625,-0.85325c-1.44105,-1.13767 -3.02905,-2.00989 -4.764,-2.61665c-1.73495,-0.60676 -3.57893,-0.91014 -5.53193,-0.91014c-4.62653,0 -8.57994,1.64014 -11.86023,4.92043c-3.24236,3.24236 -4.86355,7.17681 -4.86355,11.80335c0,4.64549 1.62118,8.58942 4.86355,11.83179c3.26133,3.26133 7.21474,4.89199 11.86023,4.89199c3.96289,0 7.45175,-1.223 10.46658,-3.66899c0.49299,-0.3413 1.08079,-0.52143 1.76339,-0.54039z" data-paper-data="{&quot;glyphName&quot;:&quot;C&quot;,&quot;glyphIndex&quot;:8,&quot;word&quot;:2}" id="element-id-35755"></path>
          <path d="M481.98517,261.93953h-11.23451v36.46238c0,0.83429 -0.2939,1.54534 -0.8817,2.13313c-0.5878,0.5878 -1.29884,0.8817 -2.13313,0.8817c-0.83429,0 -1.54534,-0.2939 -2.13313,-0.8817c-0.5878,-0.5878 -0.8817,-1.29884 -0.8817,-2.13313v-36.46238h-11.23451c-0.83429,0 -1.54534,-0.2939 -2.13313,-0.8817c-0.5878,-0.5878 -0.8817,-1.29884 -0.8817,-2.13313c0,-0.83429 0.2939,-1.54534 0.8817,-2.13313c0.5878,-0.5878 1.29884,-0.8817 2.13313,-0.8817h28.49868c0.83429,0 1.54534,0.2939 2.13313,0.8817c0.5878,0.5878 0.8817,1.29884 0.8817,2.13313c0,0.83429 -0.2939,1.54534 -0.8817,2.13313c-0.5878,0.5878 -1.29884,0.8817 -2.13313,0.8817z" data-paper-data="{&quot;glyphName&quot;:&quot;T&quot;,&quot;glyphIndex&quot;:9,&quot;lastGlyphOfWord&quot;:true,&quot;word&quot;:2}" id="element-id-74605"></path>
        </g>
        <g data-paper-data="{&quot;fillRule&quot;:&quot;evenodd&quot;,&quot;fillRuleOriginal&quot;:&quot;evenodd&quot;,&quot;isIcon&quot;:true,&quot;iconStyle&quot;:&quot;standalone&quot;,&quot;selectedEffects&quot;:{&quot;container&quot;:&quot;&quot;,&quot;transformation&quot;:&quot;&quot;,&quot;pattern&quot;:&quot;&quot;},&quot;bounds&quot;:{&quot;x&quot;:140.38863718945083,&quot;y&quot;:135.29229020492875,&quot;width&quot;:269.22272562109833,&quot;height&quot;:98.94916962921758},&quot;iconType&quot;:&quot;icon&quot;,&quot;rawIconId&quot;:&quot;1cde4753-4a3b-47ea-9714-6c8471375f51&quot;,&quot;isSvgStockIcon&quot;:true,&quot;combineTerms&quot;:&quot;car,sportscar&quot;,&quot;combineTermsExtended&quot;:{&quot;icon&quot;:[&quot;car&quot;,&quot;sportscar&quot;]},&quot;isDetailed&quot;:true,&quot;suitableAsStandaloneIcon&quot;:true}" fill-rule="evenodd" id="element-id-73159">
          <path d="M229.01823,139.32437c-13.81801,0 -29.24886,3.81412 -29.40141,3.85771c-0.13077,0.02179 -0.23974,-0.04359 -0.26154,-0.15257c-0.04359,-0.10898 0.02179,-0.23974 0.15257,-0.28333c0.17436,-0.06538 17.82828,-6.36413 47.29509,-7.32311c2.35385,-0.08717 4.70771,-0.13077 7.03977,-0.13077c14.14494,0 25.73986,1.43847 32.97579,2.63718c7.58465,1.26411 12.0962,2.52822 12.44493,2.63718c0.10898,0 0.19616,0.10898 0.19616,0.21795c0,0.13077 -0.10898,0.23974 -0.23974,0.23974h-0.02179c-10.74492,-1.13333 -22.40523,-1.7218 -34.654,-1.7218c-8.97953,0 -15.6052,0.32693 -17.80649,0.45769c14.42827,8.26029 21.29369,20.07317 21.72959,20.836c0.02179,0.04359 0.04359,0.10898 0.04359,0.15257c0,0.13077 -0.08717,0.23974 -0.21795,0.23974h-0.02179c-0.06538,0 -0.15257,-0.02179 -0.19616,-0.08717c-3.509,-4.44617 -17.28341,-18.15521 -28.46423,-20.59625c-2.98591,-0.65385 -6.53849,-0.98078 -10.59235,-0.98078zM259.0953,161.07575c-0.02179,0 -3.26924,0.06538 -7.69362,0.06538c-9.61159,0 -21.90395,-0.23974 -25.84884,-1.3077c-0.08717,-0.02179 -0.15257,-0.10898 -0.15257,-0.21795c0,-0.04359 0.08717,-3.68334 2.89873,-4.25002c4.86028,-0.98078 8.6744,-1.63463 11.39877,-1.63463c2.31027,0 3.63976,0.47949 4.11926,1.46026c1.37309,2.85515 3.98848,3.4436 5.95002,3.4436c1.06795,0 1.93975,-0.17436 2.35385,-0.28333c-0.37052,-0.95898 -2.13591,-4.7949 -8.69619,-9.17568c-3.9231,-2.61539 -9.19748,-3.9231 -15.71417,-3.9231c-6.40772,0 -13.79621,1.32949 -20.8142,3.70515c-8.50003,2.87694 -13.70904,5.79746 -15.30008,6.73465l31.12323,6.27696c0.13077,0 0.21795,0.10898 0.21795,0.21795c0,0.13077 -0.10898,0.23974 -0.23974,0.23974h-0.02179c-0.30512,-0.04359 -28.90013,-3.40001 -35.9617,-5.57951c-0.04359,0 -0.06538,-0.02179 -0.08717,-0.04359c-0.47949,-0.4141 -2.07052,-1.85258 -1.96154,-2.55001c0.02179,-0.17436 0.15257,-0.32693 0.30512,-0.39231c4.92566,-2.07052 13.16416,-5.53592 23.23344,-8.26029c6.27696,-1.7218 12.44493,-3.24745 18.98342,-3.24745c9.63338,0 17.7629,3.46539 24.84627,10.54877c2.48463,2.46284 7.19234,7.75901 7.23593,7.8026c0.06538,0.04359 0.08717,0.15257 0.04359,0.23974c-0.04359,0.08717 -0.10898,0.13077 -0.21795,0.13077zM195.58475,143.5308c0.13077,-0.02179 0.23974,0.06538 0.26154,0.17436c0.04359,0.13077 -0.04359,0.23974 -0.15257,0.28333c-0.13077,0.02179 -12.61929,3.57438 -21.11933,7.06156c0.47949,0.82821 2.09232,3.63976 2.33206,5.1654c0,0.04359 0.02179,0.06538 0.02179,0.08717c0,0.13077 -0.10898,0.23974 -0.23974,0.23974c-0.06538,0 -0.13077,-0.02179 -0.17436,-0.06538c-0.04359,-0.06538 -5.84106,-6.01542 -17.10905,-6.01542c-1.56923,0 -3.18206,0.10898 -4.81669,0.32693c-0.13077,0.02179 -0.23974,-0.06538 -0.26154,-0.17436c-0.04359,-0.13077 0.04359,-0.23974 0.15257,-0.28333c0.10898,-0.02179 11.42056,-3.63976 41.10532,-6.80003zM381.7138,171.29759c16.15008,9.00133 26.13217,19.74625 27.87577,23.49497c0.04359,0.08717 0.02179,0.21795 -0.06538,0.28333c-0.04359,0.04359 -1.32949,1.06795 -5.79746,1.06795c-0.06538,0 -0.13077,-0.04359 -0.17436,-0.10898c-0.06538,-0.06538 -0.06538,-0.15257 -0.04359,-0.21795c0.02179,-0.02179 0.71923,-2.20129 0.8718,-5.01285c-0.74104,-0.80642 -7.86798,-8.39107 -18.46033,-14.14494c-10.94108,-5.95002 -30.99245,-11.96544 -38.51172,-12.27057c-1.93975,-0.06538 -3.61796,0.26154 -5.79746,0.71923c-3.37822,0.69743 -7.99876,1.63463 -16.76033,1.63463c-7.88977,0 -17.93726,-0.80642 -29.85912,-2.35385c-0.13077,0 -0.21795,-0.10898 -0.19616,-0.23974c0.02179,-0.13077 0.10898,-0.21795 0.23974,-0.21795c0.04359,0 6.25516,0.37052 14.2975,0.37052c9.1103,0 16.86931,-0.45769 23.03728,-1.35128c1.37309,-0.19616 2.61539,-0.37052 3.72694,-0.52307c3.68334,-0.47949 6.12439,-0.80642 6.36413,-1.52564c0.08717,-0.28333 -0.19616,-0.78462 -0.8718,-1.48206c-4.64233,-4.7295 -18.96163,-10.65775 -19.1142,-10.72313c-0.13077,-0.04359 -0.17436,-0.17436 -0.13077,-0.28333c0.04359,-0.13077 0.15257,-0.19616 0.28333,-0.15257c0.15257,0.04359 15.64879,4.92566 28.79115,12.22698c0.89359,0.17436 16.71674,3.26924 30.29502,10.8103zM151.12301,151.3334c0.08717,-0.08717 0.21795,-0.08717 0.30512,0c0.08717,0.06538 0.10898,0.19616 0.06538,0.28333c-0.04359,0.04359 -3.4436,5.36156 -1.35128,10.65775c0.02179,0.10898 -0.02179,0.26154 -0.13077,0.30512c0,0 -1.2859,0.63205 -2.52822,1.46026c-1.48206,0.98078 -3.0731,2.52822 -3.0731,2.52822c-0.04359,0.04359 -0.10898,0.06538 -0.15257,0.06538c-0.04359,0 -0.08717,0 -0.10898,-0.02179c-0.08717,-0.04359 -0.15257,-0.13077 -0.13077,-0.21795c0,-0.08717 0.76283,-9.45902 7.10516,-15.06032zM178.14877,202.8785c26.9168,5.36156 61.59259,14.10135 61.94131,14.18852c0.10898,0.02179 0.17436,0.15257 0.17436,0.26154c0,0.13077 -0.10898,0.19616 -0.21795,0.19616h-0.02179c-8.69619,-1.08975 -21.79497,-3.18206 -34.47964,-5.209c-12.0962,-1.93975 -24.60653,-3.9231 -33.56425,-5.12181c-0.06538,0 -0.08717,-0.02179 -0.13077,-0.06538c-0.4359,-0.4359 -4.22822,-4.3154 -4.18464,-5.84106c0.17436,-10.48339 -0.98078,-24.62832 -7.56286,-32.43092c-3.90129,-4.64233 -7.88977,-4.81669 -7.93337,-4.81669c-0.10898,-0.02179 -0.19616,-0.06538 -0.21795,-0.17436c-0.02179,-0.10898 0.02179,-0.19616 0.08717,-0.26154c0.04359,-0.02179 1.11154,-0.74104 2.92053,-0.74104c2.96412,0 7.60644,1.91796 12.85903,11.05005c4.38079,7.60644 4.92566,15.62699 5.33976,21.46805c0.10898,1.63463 0.19616,3.05129 0.37052,4.22822c0.17436,1.19873 3.35643,2.76796 4.62054,3.26924zM297.43264,174.91555c-0.04359,0.08717 -0.13077,0.10898 -0.19616,0.10898h-0.08717c-0.13077,-0.08717 -9.17568,-4.359 -17.82828,-7.67183c-3.4872,-1.35128 -8.78338,-2.28847 -15.99751,-2.28847c-6.86542,0 -12.968,0.71923 -13.0334,0.74104c-0.13077,0.02179 -0.23974,-0.06538 -0.26154,-0.17436c-0.02179,-0.13077 0.02179,-0.23974 0.15257,-0.28333c0.08717,-0.02179 8.56543,-2.46284 17.65393,-2.46284c4.05386,0 7.65003,0.47949 10.67954,1.43847c11.35518,3.57438 18.74368,10.17825 18.87444,10.28723c0.08717,0.06538 0.10898,0.19616 0.04359,0.30512zM163.241,209.3952c0.65385,0 1.04616,-0.06538 1.04616,-0.06538c0.13077,-0.02179 0.23974,0.06538 0.34872,0.17436c0.04359,0.13077 -0.04359,0.26154 -0.17436,0.28333c-1.65642,0.37052 -3.29105,0.56667 -4.83848,0.56667c-11.11544,0 -15.77956,-9.45902 -16.60777,-11.35518c-0.30512,-0.74104 -0.58847,-1.50385 -0.85,-2.24489c-0.37052,-1.11154 -0.67564,-2.20129 -0.91538,-3.24745c-0.13077,-0.47949 -0.19616,-0.93718 -0.28333,-1.41668l-0.04359,-0.23974c-0.02179,-0.08717 -0.04359,-0.17436 -0.06538,-0.28333c-0.02179,-0.19616 -0.06538,-0.34872 -0.08717,-0.54488l-0.10898,-0.85c-0.30512,-2.22309 -0.28333,-4.42438 -0.26154,-6.34234c0,-0.30512 0.02179,-0.58847 0.04359,-0.8718c0.04359,-0.74104 0.08717,-1.43847 0.15257,-2.1577c0.06538,-0.32693 0.10898,-0.65385 0.15257,-0.95898c0.10898,-0.67564 0.19616,-1.3077 0.32693,-1.91796l0.61026,-2.37565l0.56667,-1.59104c0.02179,-0.08717 0.06538,-0.17436 0.08717,-0.23974c0.04359,-0.13077 0.08717,-0.23974 0.13077,-0.37052l0.28333,-0.58847c0.19616,-0.37052 0.37052,-0.74104 0.54488,-1.11154c0.15257,-0.26154 0.30512,-0.52307 0.45769,-0.76283c0.04359,-0.08717 0.10898,-0.17436 0.15257,-0.26154c0.34872,-0.58847 0.74104,-1.11154 1.13333,-1.59104l0.15257,-0.19616c0.93718,-1.08975 1.80899,-1.87437 2.63718,-2.39744c0.30512,-0.23974 0.61026,-0.39231 0.89359,-0.54488c0.08717,-0.04359 0.13077,-0.08717 0.21795,-0.13077l0.13077,-0.06538c0.28333,-0.13077 0.54488,-0.23974 0.76283,-0.30512c0.10898,-0.04359 0.21795,-0.08717 0.32693,-0.10898c0.08717,-0.02179 0.17436,-0.04359 0.23974,-0.06538c0.13077,-0.02179 0.19616,-0.04359 0.21795,-0.04359c0.10898,0 0.19616,0.04359 0.23974,0.15257c0.02179,0.13077 0,0.23974 -0.10898,0.28333c0,0.02179 -0.04359,0.04359 -0.13077,0.10898l-0.19616,0.13077c-0.06538,0.06538 -0.13077,0.13077 -0.23974,0.21795c-0.08717,0.06538 -0.17436,0.15257 -0.28333,0.23974c-0.04359,0.04359 -0.10898,0.08717 -0.15257,0.15257l-0.17436,0.17436c-0.06538,0.10898 -0.13077,0.17436 -0.23974,0.28333c-0.17436,0.19616 -0.34872,0.37052 -0.50128,0.61026c-0.52307,0.63205 -1.02437,1.52564 -1.56923,2.63718c-0.06538,0.15257 -0.15257,0.32693 -0.21795,0.50128c-0.15257,0.39231 -0.32693,0.76283 -0.45769,1.22052c-0.02179,0.13077 -0.08717,0.28333 -0.13077,0.4359c-0.04359,0.17436 -0.10898,0.37052 -0.15257,0.54488c-0.10898,0.32693 -0.17436,0.67564 -0.26154,1.02437c0.02179,-0.02179 0.02179,-0.04359 0.04359,-0.06538c0.74104,-1.22052 1.78718,-2.26668 2.89873,-2.94232c1.24231,-0.74104 2.46284,-1.02437 3.24745,-1.11154c0.85,-0.08717 1.70001,-0.04359 2.52822,0.10898c0.4359,0.08717 0.80642,0.21795 1.13333,0.32693c0.39231,0.13077 0.74104,0.30512 0.85,0.34872c0.08717,0.02179 0.15257,0.10898 0.15257,0.21795c0,0.13077 -0.10898,0.23974 -0.23974,0.23974h-0.04359c0,0 -0.15257,-0.02179 -0.39231,-0.02179c-1.96154,0 -8.45645,1.00257 -10.17825,13.90519c-1.74359,12.92441 5.40516,21.35907 12.79365,23.71292c0.58847,0.21795 1.17693,0.39231 1.7218,0.50128c0.76283,0.15257 1.56923,0.26154 2.35385,0.26154c0.10898,0.02179 0.21795,0.02179 0.32693,0.02179zM230.74003,204.79646l-45.31175,-10.26544c-0.10898,-0.02179 -0.19616,-0.13077 -0.17436,-0.26154c1.15513,-9.02312 0.37052,-15.93213 -0.47949,-20.13855c-0.91538,-4.55515 -2.11411,-6.99618 -2.13591,-7.01798c-0.06538,-0.13077 -0.04359,-0.23974 0.06538,-0.30512c0.08717,-0.08717 0.23974,-0.06538 0.30512,0.02179c0.19616,0.19616 4.51155,4.90387 7.69362,19.85522c1.06795,5.03464 2.85515,6.38592 5.97182,7.19234c7.45388,1.96154 33.93477,10.3744 34.19631,10.46159c0.10898,0.04359 0.17436,0.17436 0.15257,0.28333c-0.04359,0.10898 -0.13077,0.17436 -0.23974,0.17436zM272.45561,231.82222c1.41668,0 2.39744,-0.13077 2.68079,-0.17436c0.13077,-0.02179 0.26154,0.06538 0.23974,0.15257c0.02179,0.13077 -0.06538,0.23974 -0.19616,0.26154c-2.28847,0.39231 -4.53335,0.58847 -6.64747,0.58847c-19.65906,0 -24.73729,-16.54238 -25.5655,-19.85522c-0.26154,-1.17693 -0.45769,-2.22309 -0.58847,-3.24745l-0.06538,-0.56667l-0.06538,-0.69743c-0.04359,-0.34872 -0.08717,-0.69743 -0.10898,-1.02437l-0.08717,-1.17693v-0.21795c-0.02179,-0.10898 -0.02179,-0.23974 -0.02179,-0.34872l-0.02179,-0.54488c-0.04359,-1.41668 0,-2.89873 0.13077,-4.42438c0.23974,-2.94232 0.80642,-5.73208 1.67821,-8.30388c0.85,-2.48463 2.02694,-4.86028 3.42181,-6.84362c1.24231,-1.78718 2.72437,-3.35643 4.38079,-4.68592c1.32949,-1.02437 2.70258,-1.89616 4.14105,-2.55001c0.98078,-0.45769 1.96154,-0.80642 2.89873,-1.02437c0.69743,-0.17436 1.06795,-0.21795 1.08975,-0.21795c0.10898,-0.02179 0.19616,0.04359 0.23974,0.15257c0.02179,0.13077 -0.02179,0.23974 -0.13077,0.28333c0,0.02179 -0.32693,0.19616 -0.8718,0.54488c-0.76283,0.50128 -1.52564,1.08975 -2.28847,1.76539c-1.08975,0.95898 -2.09232,2.02694 -2.98591,3.18206c-1.11154,1.46026 -2.07052,3.05129 -2.81155,4.70771c-0.10898,0.21795 -0.17436,0.4359 -0.28333,0.65385c0.4141,-0.54488 0.85,-1.06795 1.32949,-1.59104c0.65385,-0.71923 1.37309,-1.39488 2.09232,-1.96154c0.74104,-0.61026 1.52564,-1.13333 2.28847,-1.56923c0.82821,-0.45769 1.63463,-0.82821 2.39744,-1.08975c0.82821,-0.28333 1.61283,-0.47949 2.37565,-0.58847c1.37309,-0.23974 2.81155,-0.23974 4.18464,-0.02179c1.06795,0.15257 2.09232,0.4359 3.05129,0.82821c0.63205,0.23974 1.24231,0.54488 1.78718,0.8718c0.32693,0.19616 0.50128,0.32693 0.56667,0.37052c0.08717,0.04359 0.13077,0.13077 0.13077,0.21795c0,0.10898 -0.10898,0.21795 -0.23974,0.21795h-0.06538c0,0 -0.13077,-0.04359 -0.4141,-0.10898c-0.06538,-0.02179 -0.13077,-0.02179 -0.21795,-0.04359c-0.37052,-0.08717 -1.00257,-0.17436 -1.83078,-0.23974c-0.95898,-0.06538 -1.87437,-0.04359 -2.78975,0.04359c-1.17693,0.13077 -2.31027,0.39231 -3.35643,0.78462c-0.89359,0.32693 -1.74359,0.76283 -2.55001,1.3077c-3.16027,1.87437 -5.68849,4.92566 -7.49748,9.06671c-3.31284,7.56286 -2.52822,14.58083 -1.2859,19.13599c1.43847,5.18721 3.94489,9.0885 5.27438,10.46159c0,0 0,0.02179 0.02179,0.02179c5.33976,6.53849 12.66288,7.49748 16.58598,7.49748zM349.60981,202.0285c-0.23974,-0.13077 -23.56037,-13.53468 -41.10532,-18.39495c-0.10898,-0.02179 -0.19616,0.02179 -0.23974,0.08717c-0.06538,0.08717 -0.06538,0.19616 0,0.28333l8.6744,12.27057c0.04359,0.04359 0.08717,0.06538 0.13077,0.08717l22.71036,6.32054h0.08717l9.63338,-0.19616c0.10898,-0.02179 0.17436,-0.08717 0.21795,-0.19616c0.02179,-0.10898 -0.02179,-0.21795 -0.10898,-0.26154zM336.46743,230.92863c6.05901,0 37.63991,-0.50128 66.19133,-10.15645c0.10898,-0.04359 0.26154,0.02179 0.21795,0.08717c0.04359,0.13077 -0.02179,0.26154 -0.13077,0.30512c-5.18721,2.11411 -20.02958,6.97439 -39.16557,10.09107c-10.98466,1.78718 -20.22574,2.98591 -29.53219,2.98591c-0.82821,0 -1.65642,0 -2.48463,-0.02179c-10.11287,-0.26154 -40.80018,-4.99105 -47.73098,-6.18977c-2.1285,-0.36921 -1.59474,-4.63448 -1.56946,-4.83652l0.00022,-0.00197c0.06538,-0.52307 0.15257,-1.08975 0.23974,-1.67821c0.10898,-0.80642 0.19616,-1.67821 0.30512,-2.55001l0.15257,-1.39488l0.13077,-1.46026l0.10898,-1.52564l0.10898,-1.54744l0.06538,-1.56923l0.04359,-1.61283c0,-0.91538 0,-2.02694 -0.06538,-3.13848c-0.04359,-1.06795 -0.15257,-2.09232 -0.26154,-3.05129c-0.17436,-1.15513 -0.32693,-2.04873 -0.47949,-2.83334c-0.19616,-0.91538 -0.4141,-1.76539 -0.61026,-2.50642c-0.23974,-0.80642 -0.4359,-1.50385 -0.65385,-2.09232c-0.17436,-0.52307 -0.37052,-1.02437 -0.58847,-1.61283c-0.17436,-0.4141 -0.32693,-0.76283 -0.4359,-1.00257l-0.15257,-0.34872c-0.04359,-0.10898 0,-0.26154 0.10898,-0.30512c0.08717,-0.06538 0.23974,-0.02179 0.30512,0.06538l0.21795,0.32693c0.15257,0.21795 0.37052,0.54488 0.61026,0.93718c0.23974,0.32693 0.56667,0.8718 0.91538,1.48206c0.34872,0.56667 0.69743,1.22052 1.08975,2.00514c0.37052,0.76283 0.78462,1.59104 1.13333,2.46284c0.32693,0.78462 0.65385,1.70001 1.04616,2.85515c0.30512,0.93718 0.63205,2.02694 0.89359,3.16027c0.23974,0.93718 0.45769,1.96154 0.69743,3.31284l0.26154,1.63463l0.21795,1.65642l0.21795,1.78718l0.19616,1.91796l0.17436,2.52822c0.06538,0.91538 0.10898,1.83078 0.15257,2.70258c0.02179,0.61026 0.04359,1.17693 0.06538,1.46026l6.5167,1.37309c0.67564,-2.74617 1.48206,-10.15645 -0.02179,-20.13855c-0.02179,-0.10898 0.04359,-0.21795 0.15257,-0.26154c0.10898,-0.02179 0.21795,0 0.28333,0.10898c0.17436,0.30512 3.96669,7.23593 4.20643,8.97953c0.06538,0.30512 0.13077,0.67564 0.21795,1.11154c0.4141,2.04873 1.15513,5.81926 0.56667,11.2898c1.87437,0.45769 16.71674,4.03207 32.23477,5.12181c0.78462,0.04359 2.17949,0.08717 3.83591,0.08717zM331.65076,207.6952c0.10898,-0.02179 0.21795,0 0.28333,0.10898c0.04359,0.08717 0.04359,0.19616 -0.06538,0.26154c-0.04359,0.04359 -4.88207,5.38336 -5.90644,11.57313c0.56667,0.34872 3.13848,1.78718 8.63081,2.35385c4.64233,0.47949 12.51031,0.78462 20.02958,0.78462c7.19234,0 13.33852,-0.28333 17.30521,-0.78462c14.40647,-1.80899 27.39628,-4.40259 27.52704,-4.42438c0.13077,-0.02179 0.23974,0.02179 0.28333,0.15257c0.04359,0.13077 -0.02179,0.23974 -0.13077,0.28333c-0.10898,0.06538 -11.50775,4.53335 -26.61166,6.42951c-14.36289,1.78718 -25.9796,2.70258 -34.54503,2.70258c-2.55001,0 -4.86028,-0.08717 -6.84362,-0.23974c-5.81926,-0.47949 -15.1693,-2.70258 -15.27827,-2.72437c-0.06538,-0.02179 -0.10898,-0.06538 -0.15257,-0.13077c-0.02179,-0.06538 -0.02179,-0.13077 0.02179,-0.19616c0.61026,-1.26411 6.18977,-12.35775 6.9308,-13.09878c0.74104,-0.76283 7.73722,-2.81155 8.52183,-3.05129z" data-paper-data="{&quot;isPathIcon&quot;:true}" id="element-id-61239"></path>
        </g>
      </g>
    </g>
  </svg>